<svg xmlns="http://www.w3.org/2000/svg" xmlns:xlink="http://www.w3.org/1999/xlink" viewBox="0 0 1185.04 1162.24"><defs><style>.cls-1{font-size:12.86px;font-family:FugazOne-Regular, Fugaz One;}.cls-1,.cls-4{fill:#fff;}.cls-2{fill:#fcebff;}.cls-3{opacity:0.16;}.cls-15,.cls-16,.cls-5,.cls-9{fill:none;stroke-miterlimit:10;}.cls-16,.cls-5{stroke:#fff;}.cls-5{stroke-width:7px;}.cls-15,.cls-6{opacity:0.1;}.cls-7{fill:#f7f9fa;}.cls-8{fill:#afedb8;}.cls-9{stroke:#d9edf2;}.cls-10{fill:#eecd9b;}.cls-11{fill:#e8b874;}.cls-12{fill:#997b55;}.cls-13{fill:#363636;}.cls-14{fill:#7f7f7f;}.cls-15{stroke:#000;}.cls-15,.cls-16{stroke-width:6px;}.cls-17{opacity:0.4;}.cls-18{mask:url(#mask);}.cls-19{fill:#77624d;}.cls-20{filter:url(#luminosity-invert-noclip);}</style><filter id="luminosity-invert-noclip" x="284.22" y="668.02" width="50.14" height="25.43" filterUnits="userSpaceOnUse" color-interpolation-filters="sRGB"><feColorMatrix values="-1 0 0 0 1 0 -1 0 0 1 0 0 -1 0 1 0 0 0 1 0" result="invert"/><feFlood flood-color="#fff" result="bg"/><feBlend in="invert" in2="bg"/></filter><mask id="mask" x="284.22" y="668.02" width="50.14" height="25.43" maskUnits="userSpaceOnUse"><g class="cls-20"><text class="cls-1" transform="translate(290.8 688.08) rotate(-8.78)">MAMA</text></g></mask></defs><title>Aktiv 2</title><g id="Lag_2" data-name="Lag 2"><g id="Lag_1-2" data-name="Lag 1"><rect class="cls-2" x="90.67" y="48.12" width="1003.7" height="1066" rx="327.15" ry="327.15" transform="translate(-207 803.7) rotate(-60)"/><ellipse class="cls-3" cx="177.81" cy="613.57" rx="33.5" ry="24.5"/><circle class="cls-4" cx="172.81" cy="581.57" r="38.5"/><ellipse class="cls-4" cx="172.31" cy="592.57" rx="33" ry="38.5"/><path class="cls-5" d="M195.38,579.07s51.39,38.08-11.7,40.46"/><rect class="cls-6" x="248.37" y="663.92" width="157.84" height="192.07" transform="translate(-112.18 58.87) rotate(-8.78)"/><rect class="cls-7" x="244.67" y="658.07" width="157.3" height="192.03" transform="translate(-111.33 58.2) rotate(-8.78)"/><rect class="cls-8" x="230.37" y="659.17" width="157.3" height="4.66" transform="translate(-97.37 54.93) rotate(-8.78)"/><line class="cls-9" x1="237.45" y1="713.46" x2="392.93" y2="689.44"/><line class="cls-9" x1="239.7" y1="728.04" x2="395.18" y2="704.02"/><line class="cls-9" x1="241.7" y1="740.99" x2="397.18" y2="716.97"/><line class="cls-9" x1="243.96" y1="755.57" x2="399.43" y2="731.55"/><line class="cls-9" x1="246.46" y1="771.76" x2="401.94" y2="747.75"/><line class="cls-9" x1="248.71" y1="786.34" x2="404.19" y2="762.32"/><line class="cls-9" x1="250.96" y1="800.92" x2="406.44" y2="776.9"/><line class="cls-9" x1="255.47" y1="830.07" x2="410.94" y2="806.05"/><line class="cls-9" x1="253.21" y1="815.49" x2="408.69" y2="791.47"/><g class="cls-6"><polygon points="437.53 724.76 436.12 721.07 515.68 689.49 517.1 693.18 437.53 724.76"/><polygon points="438.94 728.46 437.53 724.76 517.1 693.18 518.51 696.88 438.94 728.46"/><polygon points="429.75 727.85 436.12 721.07 438.94 728.46 429.75 727.85"/><polygon points="522.94 690.87 524.35 694.56 518.51 696.88 517.1 693.18 522.94 690.87"/><polygon points="521.52 687.17 522.94 690.87 517.1 693.18 515.68 689.49 521.52 687.17"/></g><rect class="cls-10" x="472.78" y="664.11" width="3.82" height="83.52" transform="translate(960.02 7.27) rotate(68.71)"/><rect class="cls-11" x="474.17" y="667.67" width="3.82" height="83.52" transform="translate(964.23 8.24) rotate(68.71)"/><polygon class="cls-12" points="428.87 725.78 435.09 719.25 437.87 726.38 428.87 725.78"/><rect class="cls-13" x="515.94" y="690.09" width="3.82" height="6.13" transform="translate(975.66 -41.03) rotate(68.71)"/><rect class="cls-14" x="514.55" y="686.53" width="3.82" height="6.13" transform="translate(971.46 -42.01) rotate(68.71)"/><rect class="cls-6" x="386.03" y="416.74" width="89" height="245.53" transform="translate(-259.69 543.26) rotate(-51.72)"/><path class="cls-15" d="M455.73,505.36c20.49-25.28,84,12.84,99.81-13.16,22.11-36.39-36.36-81.35-13.33-112,32.31-43,192.39-7,279.27,45"/><path class="cls-16" d="M453.73,504.36c20.49-25.28,84,12.84,99.81-13.16,22.11-36.39-36.36-81.35-13.33-112,32.31-43,192.39-7,279.27,45"/><rect class="cls-4" x="385.63" y="414.61" width="89" height="245" transform="translate(-257.97 542.04) rotate(-51.72)"/><g class="cls-17"><rect x="361.96" y="446.52" width="10.57" height="10.57" transform="translate(358.84 -130.37) rotate(38.28)"/><rect x="352.49" y="459.81" width="18" height="10.57" transform="translate(365.83 -123.95) rotate(38.28)"/><rect x="349.5" y="466.13" width="10.57" height="23" transform="translate(-239.95 460.26) rotate(-51.72)"/><rect x="335.25" y="481.48" width="17" height="10.57" transform="translate(375.44 -108.3) rotate(38.28)"/><rect x="373.95" y="455.97" width="10.57" height="10.57" transform="translate(367.27 -135.76) rotate(38.28)"/><rect x="385.93" y="465.43" width="10.57" height="10.57" transform="translate(375.71 -141.15) rotate(38.28)"/><rect x="397" y="474.16" width="10.57" height="10.57" transform="translate(383.5 -146.13) rotate(38.28)"/><rect x="408.98" y="483.62" width="10.57" height="10.57" transform="translate(391.93 -151.52) rotate(38.28)"/><rect x="420.97" y="493.08" width="10.57" height="10.57" transform="translate(400.37 -156.91) rotate(38.28)"/><rect x="432.03" y="501.81" width="10.57" height="10.57" transform="translate(408.16 -161.89) rotate(38.28)"/><rect x="444.02" y="511.27" width="10.57" height="10.57" transform="translate(-234.53 549.27) rotate(-51.72)"/><rect x="456.01" y="520.73" width="10.57" height="10.57" transform="translate(-237.4 562.28) rotate(-51.72)"/><rect x="467.07" y="529.46" width="10.57" height="10.57" transform="translate(-240.04 574.29) rotate(-51.72)"/><rect x="479.06" y="538.92" width="10.57" height="10.57" transform="translate(441.25 -183.04) rotate(38.28)"/><rect x="491.04" y="548.38" width="10.57" height="10.57" transform="translate(449.69 -188.43) rotate(38.28)"/><rect x="502.82" y="557.67" width="10.57" height="10.57" transform="translate(457.98 -193.73) rotate(38.28)"/><rect x="513.52" y="570.06" width="20.57" height="10.57" transform="translate(469.03 -200.79) rotate(38.28)"/><polygon points="511.12 608.02 504.05 602.45 512.72 591.46 508.8 588.36 515.49 579.88 526.48 588.56 511.12 608.02"/><rect x="370.77" y="471.3" width="10.57" height="10.57" transform="translate(376.08 -130.5) rotate(38.28)"/><rect x="382.76" y="480.76" width="10.57" height="10.57" transform="translate(384.52 -135.89) rotate(38.28)"/><rect x="393.82" y="489.49" width="10.57" height="10.57" transform="translate(-236.54 501.57) rotate(-51.72)"/><rect x="405.81" y="498.95" width="10.57" height="10.57" transform="translate(-239.4 514.58) rotate(-51.72)"/><rect x="417.79" y="508.41" width="10.57" height="10.57" transform="translate(-242.27 527.59) rotate(-51.72)"/><rect x="428.86" y="517.14" width="10.57" height="10.57" transform="translate(416.97 -156.63) rotate(38.28)"/><rect x="440.84" y="526.6" width="10.57" height="10.57" transform="translate(425.4 -162.02) rotate(38.28)"/><rect x="452.83" y="536.06" width="10.57" height="10.57" transform="translate(433.84 -167.41) rotate(38.28)"/><rect x="463.89" y="544.79" width="10.57" height="10.57" transform="translate(441.63 -172.39) rotate(38.28)"/><rect x="475.88" y="554.25" width="10.57" height="10.57" transform="translate(450.06 -177.78) rotate(38.28)"/><rect x="487.86" y="563.7" width="10.57" height="10.57" transform="translate(458.5 -183.17) rotate(38.28)"/><rect x="499.64" y="573" width="10.57" height="10.57" transform="translate(466.79 -188.47) rotate(38.28)"/><rect x="366.02" y="485.39" width="10.57" height="10.57" transform="translate(-243.89 478.19) rotate(-51.72)"/><rect x="378.01" y="494.85" width="10.57" height="10.57" transform="translate(-246.76 491.2) rotate(-51.72)"/><rect x="389.07" y="503.58" width="10.57" height="10.57" transform="translate(400.01 -134.9) rotate(38.28)"/><rect x="401.06" y="513.04" width="10.57" height="10.57" transform="translate(408.45 -140.29) rotate(38.28)"/><rect x="413.05" y="522.5" width="10.57" height="10.57" transform="translate(416.89 -145.68) rotate(38.28)"/><rect x="424.11" y="531.23" width="10.57" height="10.57" transform="translate(424.67 -150.66) rotate(38.28)"/><rect x="436.1" y="540.68" width="10.57" height="10.57" transform="translate(433.11 -156.05) rotate(38.28)"/><rect x="448.08" y="550.14" width="10.57" height="10.57" transform="translate(441.55 -161.44) rotate(38.28)"/><rect x="459.14" y="558.87" width="10.57" height="10.57" transform="translate(449.33 -166.42) rotate(38.28)"/><rect x="471.13" y="568.33" width="10.57" height="10.57" transform="translate(457.77 -171.81) rotate(38.28)"/><rect x="483.12" y="577.79" width="10.57" height="10.57" transform="translate(466.21 -177.2) rotate(38.28)"/><rect x="494.89" y="587.08" width="10.57" height="10.57" transform="translate(474.49 -182.5) rotate(38.28)"/><rect x="478.19" y="599.8" width="31" height="10.57" transform="translate(480.98 -175.75) rotate(38.28)"/><rect x="352.07" y="492.21" width="10.57" height="10.57" transform="translate(385.01 -114.42) rotate(38.28)"/><rect x="327.22" y="490.41" width="11" height="11" transform="translate(378.73 -99.5) rotate(38.28)"/><rect x="338.21" y="499.08" width="11" height="11" transform="translate(386.47 -104.44) rotate(38.28)"/><rect x="349.2" y="507.75" width="11" height="11" transform="translate(394.21 -109.39) rotate(38.28)"/><rect x="359.65" y="517.97" width="16" height="11" transform="translate(403.32 -115.21) rotate(38.28)"/><rect x="435.58" y="578.68" width="18" height="11" transform="translate(457.47 -149.82) rotate(38.28)"/><rect x="368.33" y="547.71" width="74" height="11" transform="translate(429.84 -132.16) rotate(38.28)"/><rect x="363.13" y="500.94" width="10.57" height="10.57" transform="translate(392.8 -119.39) rotate(38.28)"/><rect x="375.12" y="510.4" width="10.57" height="10.57" transform="translate(401.24 -124.79) rotate(38.28)"/><rect x="387.1" y="519.86" width="10.57" height="10.57" transform="translate(409.67 -130.18) rotate(38.28)"/><rect x="398.17" y="528.59" width="10.57" height="10.57" transform="translate(417.46 -135.15) rotate(38.28)"/><rect x="410.15" y="538.05" width="10.57" height="10.57" transform="translate(425.9 -140.55) rotate(38.28)"/><rect x="422.14" y="547.5" width="10.57" height="10.57" transform="translate(434.33 -145.94) rotate(38.28)"/><rect x="433.2" y="556.24" width="10.57" height="10.57" transform="translate(442.12 -150.91) rotate(38.28)"/><rect x="445.19" y="565.69" width="10.57" height="10.57" transform="translate(450.56 -156.31) rotate(38.28)"/><rect x="457.17" y="575.15" width="10.57" height="10.57" transform="translate(458.99 -161.7) rotate(38.28)"/><rect x="453.21" y="589.86" width="10.57" height="10.57" transform="translate(467.25 -156.08) rotate(38.28)"/><rect x="464.2" y="598.53" width="10.57" height="10.57" transform="translate(474.99 -161.02) rotate(38.28)"/><rect x="475.98" y="607.82" width="10.57" height="10.57" transform="translate(483.28 -166.32) rotate(38.28)"/><rect x="487.75" y="617.12" width="10.57" height="10.57" transform="translate(491.56 -171.62) rotate(38.28)"/><rect x="468.95" y="584.45" width="10.57" height="10.57" transform="translate(467.28 -166.99) rotate(38.28)"/></g><g class="cls-18"><rect x="285.27" y="671.58" width="48.05" height="17.4" transform="translate(-100.23 55.19) rotate(-8.78)"/></g><path class="cls-19" d="M198.31,596.57c0,4.5-10.47,14.5-24,14.5s-25-11-25-14.5c0-11.32,11-20.5,24.5-20.5S198.31,585.25,198.31,596.57Z"/></g></g></svg>